<?xml version="1.0" encoding="UTF-8"?>
<!DOCTYPE svg PUBLIC "-//W3C//DTD SVG 1.1//EN" "http://www.w3.org/Graphics/SVG/1.1/DTD/svg11.dtd">
<svg xmlns="http://www.w3.org/2000/svg" version="1.1" width="512px" height="512px"
    style="shape-rendering:geometricPrecision; text-rendering:geometricPrecision; image-rendering:optimizeQuality; fill-rule:evenodd; clip-rule:evenodd"
    xmlns:xlink="http://www.w3.org/1999/xlink">
    <g>
        <path style="opacity:0.97" fill="#000001"
            d="M 152.5,-0.5 C 158.167,-0.5 163.833,-0.5 169.5,-0.5C 184.226,4.06885 192.726,14.0688 195,29.5C 195.5,40.8284 195.667,52.1618 195.5,63.5C 204.167,63.5 212.833,63.5 221.5,63.5C 221.333,50.8289 221.5,38.1623 222,25.5C 226.026,12.3089 234.526,3.64221 247.5,-0.5C 252.833,-0.5 258.167,-0.5 263.5,-0.5C 274.9,3.05806 283.066,10.3914 288,21.5C 289.429,35.4406 289.929,49.4406 289.5,63.5C 298.167,63.5 306.833,63.5 315.5,63.5C 315.333,52.1618 315.5,40.8284 316,29.5C 318.274,14.0688 326.774,4.06885 341.5,-0.5C 347.167,-0.5 352.833,-0.5 358.5,-0.5C 370.325,3.15502 378.492,10.8217 383,22.5C 384.416,37.4502 384.916,52.4502 384.5,67.5C 392.329,68.8311 399.162,72.1645 405,77.5C 405.722,80.2605 405.555,82.9272 404.5,85.5C 401.754,88.3054 398.421,89.1387 394.5,88C 385.677,83.4477 376.344,80.6143 366.5,79.5C 292.334,78.3345 218.001,78.1678 143.5,79C 107.333,85.8333 85.8333,107.333 79,143.5C 78.3333,217.5 78.3333,291.5 79,365.5C 80.6238,377.706 84.6238,389.04 91,399.5C 91.6667,401.5 91.6667,403.5 91,405.5C 89.5187,406.471 88.6854,407.804 88.5,409.5C 83.9354,411.353 80.102,410.353 77,406.5C 72.4559,399.747 69.2893,392.414 67.5,384.5C 52.4502,384.916 37.4502,384.416 22.5,383C 10.8217,378.492 3.15502,370.325 -0.5,358.5C -0.5,352.833 -0.5,347.167 -0.5,341.5C 4.28035,326.421 14.6137,317.921 30.5,316C 41.495,315.5 52.495,315.333 63.5,315.5C 63.5,306.833 63.5,298.167 63.5,289.5C 50.8289,289.667 38.1623,289.5 25.5,289C 12.3089,284.974 3.64221,276.474 -0.5,263.5C -0.5,258.167 -0.5,252.833 -0.5,247.5C 3.64221,234.526 12.3089,226.026 25.5,222C 38.1623,221.5 50.8289,221.333 63.5,221.5C 63.5,212.833 63.5,204.167 63.5,195.5C 52.495,195.667 41.495,195.5 30.5,195C 14.6137,193.079 4.28035,184.579 -0.5,169.5C -0.5,163.833 -0.5,158.167 -0.5,152.5C 3.15502,140.675 10.8217,132.508 22.5,128C 37.4502,126.584 52.4502,126.084 67.5,126.5C 76.8333,96.5 96.5,76.8333 126.5,67.5C 126.084,52.4502 126.584,37.4502 128,22.5C 132.508,10.8217 140.675,3.15502 152.5,-0.5 Z" />
    </g>
    <g>
        <path style="opacity:1" fill="#6c7aa6"
            d="M 179.5,40.5 C 167.167,40.5 154.833,40.5 142.5,40.5C 142.5,36.8333 142.5,33.1667 142.5,29.5C 145.921,18.1149 153.587,13.2816 165.5,15C 177.025,19.5387 181.692,28.0387 179.5,40.5 Z" />
    </g>
    <g>
        <path style="opacity:1" fill="#6d7ba6"
            d="M 273.5,28.5 C 273.5,32.5 273.5,36.5 273.5,40.5C 261.5,40.5 249.5,40.5 237.5,40.5C 237.5,36.5 237.5,32.5 237.5,28.5C 243.315,14.6156 252.982,11.1156 266.5,18C 270.219,20.612 272.552,24.112 273.5,28.5 Z" />
    </g>
    <g>
        <path style="opacity:1" fill="#6c7aa6"
            d="M 368.5,29.5 C 368.5,33.1667 368.5,36.8333 368.5,40.5C 356.167,40.5 343.833,40.5 331.5,40.5C 329.477,22.3602 337.477,13.8602 355.5,15C 362.523,17.5183 366.857,22.3517 368.5,29.5 Z" />
    </g>
    <g>
        <path style="opacity:1" fill="#2f3854"
            d="M 142.5,29.5 C 142.5,33.1667 142.5,36.8333 142.5,40.5C 142.5,48.1667 142.5,55.8333 142.5,63.5C 143.833,63.5 145.167,63.5 146.5,63.5C 145.081,64.4511 143.415,64.7845 141.5,64.5C 141.172,52.6547 141.505,40.988 142.5,29.5 Z" />
    </g>
    <g>
        <path style="opacity:1" fill="#54669e"
            d="M 142.5,40.5 C 154.833,40.5 167.167,40.5 179.5,40.5C 179.5,48.1667 179.5,55.8333 179.5,63.5C 168.5,63.5 157.5,63.5 146.5,63.5C 145.167,63.5 143.833,63.5 142.5,63.5C 142.5,55.8333 142.5,48.1667 142.5,40.5 Z" />
    </g>
    <g>
        <path style="opacity:1" fill="#53659c"
            d="M 237.5,28.5 C 237.5,32.5 237.5,36.5 237.5,40.5C 249.5,40.5 261.5,40.5 273.5,40.5C 273.5,36.5 273.5,32.5 273.5,28.5C 274.495,39.988 274.828,51.6547 274.5,63.5C 261.833,63.5 249.167,63.5 236.5,63.5C 236.172,51.6547 236.505,39.988 237.5,28.5 Z" />
    </g>
    <g>
        <path style="opacity:1" fill="#54669e"
            d="M 331.5,40.5 C 343.833,40.5 356.167,40.5 368.5,40.5C 368.5,48.1667 368.5,55.8333 368.5,63.5C 356.167,63.5 343.833,63.5 331.5,63.5C 331.5,55.8333 331.5,48.1667 331.5,40.5 Z" />
    </g>
    <g>
        <path style="opacity:1" fill="#1f263a"
            d="M 368.5,29.5 C 369.495,40.988 369.828,52.6547 369.5,64.5C 356.656,64.8287 343.989,64.4954 331.5,63.5C 343.833,63.5 356.167,63.5 368.5,63.5C 368.5,55.8333 368.5,48.1667 368.5,40.5C 368.5,36.8333 368.5,33.1667 368.5,29.5 Z" />
    </g>
    <g>
        <path style="opacity:1" fill="#8bd5fc"
            d="M 366.5,79.5 C 323.167,79.5 279.833,79.5 236.5,79.5C 209.856,148.63 206.356,218.964 226,290.5C 242.805,344.64 271.638,391.14 312.5,430C 330.406,431.473 348.406,431.973 366.5,431.5C 292.334,432.666 218.001,432.832 143.5,432C 131.926,430.365 121.259,426.365 111.5,420C 109.833,419.333 108.167,419.333 106.5,420C 105.295,421.376 103.962,422.542 102.5,423.5C 97.5271,419.194 92.8604,414.527 88.5,409.5C 88.6854,407.804 89.5187,406.471 91,405.5C 91.6667,403.5 91.6667,401.5 91,399.5C 84.6238,389.04 80.6238,377.706 79,365.5C 78.3333,291.5 78.3333,217.5 79,143.5C 85.8333,107.333 107.333,85.8333 143.5,79C 218.001,78.1678 292.334,78.3345 366.5,79.5 Z" />
    </g>
    <g>
        <path style="opacity:1" fill="#b9e6fe"
            d="M 366.5,79.5 C 376.344,80.6143 385.677,83.4477 394.5,88C 398.421,89.1387 401.754,88.3054 404.5,85.5C 410.058,88.7164 415.058,92.7164 419.5,97.5C 418.928,99.2554 418.094,100.922 417,102.5C 416.333,104.167 416.333,105.833 417,107.5C 425.721,118.657 430.721,131.324 432,145.5C 432.979,220.86 432.645,296.193 431,371.5C 423.136,406.199 401.636,426.199 366.5,431.5C 348.406,431.973 330.406,431.473 312.5,430C 271.638,391.14 242.805,344.64 226,290.5C 206.356,218.964 209.856,148.63 236.5,79.5C 279.833,79.5 323.167,79.5 366.5,79.5 Z" />
    </g>
    <g>
        <path style="opacity:0.97" fill="#000001"
            d="M 511.5,152.5 C 511.5,158.167 511.5,163.833 511.5,169.5C 506.72,184.579 496.386,193.079 480.5,195C 469.505,195.5 458.505,195.667 447.5,195.5C 447.5,204.167 447.5,212.833 447.5,221.5C 460.171,221.333 472.838,221.5 485.5,222C 498.691,226.026 507.358,234.526 511.5,247.5C 511.5,252.833 511.5,258.167 511.5,263.5C 507.358,276.474 498.691,284.974 485.5,289C 472.838,289.5 460.171,289.667 447.5,289.5C 447.5,298.167 447.5,306.833 447.5,315.5C 458.505,315.333 469.505,315.5 480.5,316C 496.386,317.921 506.72,326.421 511.5,341.5C 511.5,347.167 511.5,352.833 511.5,358.5C 507.845,370.325 500.178,378.492 488.5,383C 473.55,384.416 458.55,384.916 443.5,384.5C 434.167,414.5 414.5,434.167 384.5,443.5C 384.916,458.55 384.416,473.55 383,488.5C 378.466,500.205 370.3,507.872 358.5,511.5C 352.833,511.5 347.167,511.5 341.5,511.5C 326.774,506.931 318.274,496.931 316,481.5C 315.5,470.172 315.333,458.838 315.5,447.5C 306.833,447.5 298.167,447.5 289.5,447.5C 289.667,460.171 289.5,472.838 289,485.5C 284.974,498.691 276.474,507.358 263.5,511.5C 258.167,511.5 252.833,511.5 247.5,511.5C 236.1,507.942 227.934,500.609 223,489.5C 221.571,475.559 221.071,461.559 221.5,447.5C 212.833,447.5 204.167,447.5 195.5,447.5C 195.667,458.838 195.5,470.172 195,481.5C 192.726,496.931 184.226,506.931 169.5,511.5C 163.833,511.5 158.167,511.5 152.5,511.5C 140.675,507.845 132.508,500.178 128,488.5C 126.584,473.55 126.084,458.55 126.5,443.5C 116.916,441.627 108.75,437.294 102,430.5C 101.204,427.961 101.371,425.628 102.5,423.5C 103.962,422.542 105.295,421.376 106.5,420C 108.167,419.333 109.833,419.333 111.5,420C 121.259,426.365 131.926,430.365 143.5,432C 218.001,432.832 292.334,432.666 366.5,431.5C 401.636,426.199 423.136,406.199 431,371.5C 432.645,296.193 432.979,220.86 432,145.5C 430.721,131.324 425.721,118.657 417,107.5C 416.333,105.833 416.333,104.167 417,102.5C 418.094,100.922 418.928,99.2554 419.5,97.5C 424.686,95.5069 428.853,96.8403 432,101.5C 437.46,109.087 441.294,117.42 443.5,126.5C 458.55,126.084 473.55,126.584 488.5,128C 500.178,132.508 507.845,140.675 511.5,152.5 Z" />
    </g>
    <g>
        <path style="opacity:1" fill="#303855"
            d="M 29.5,142.5 C 40.988,141.505 52.6547,141.172 64.5,141.5C 64.7845,143.415 64.4511,145.081 63.5,146.5C 63.5,145.167 63.5,143.833 63.5,142.5C 55.8333,142.5 48.1667,142.5 40.5,142.5C 36.8333,142.5 33.1667,142.5 29.5,142.5 Z" />
    </g>
    <g>
        <path style="opacity:1" fill="#2f3855"
            d="M 480.5,142.5 C 477.167,142.5 473.833,142.5 470.5,142.5C 462.833,142.5 455.167,142.5 447.5,142.5C 447.5,143.833 447.5,145.167 447.5,146.5C 446.549,145.081 446.216,143.415 446.5,141.5C 458.012,141.172 469.346,141.505 480.5,142.5 Z" />
    </g>
    <g>
        <path style="opacity:1" fill="#6c7aa6"
            d="M 29.5,142.5 C 33.1667,142.5 36.8333,142.5 40.5,142.5C 40.5,154.833 40.5,167.167 40.5,179.5C 22.3602,181.523 13.8602,173.523 15,155.5C 17.5183,148.477 22.3517,144.143 29.5,142.5 Z" />
    </g>
    <g>
        <path style="opacity:1" fill="#54669e"
            d="M 40.5,142.5 C 48.1667,142.5 55.8333,142.5 63.5,142.5C 63.5,143.833 63.5,145.167 63.5,146.5C 63.5,157.5 63.5,168.5 63.5,179.5C 55.8333,179.5 48.1667,179.5 40.5,179.5C 40.5,167.167 40.5,154.833 40.5,142.5 Z" />
    </g>
    <g>
        <path style="opacity:1" fill="#54669e"
            d="M 470.5,142.5 C 470.5,154.833 470.5,167.167 470.5,179.5C 462.833,179.5 455.167,179.5 447.5,179.5C 447.5,168.5 447.5,157.5 447.5,146.5C 447.5,145.167 447.5,143.833 447.5,142.5C 455.167,142.5 462.833,142.5 470.5,142.5 Z" />
    </g>
    <g>
        <path style="opacity:1" fill="#6c7aa6"
            d="M 470.5,142.5 C 473.833,142.5 477.167,142.5 480.5,142.5C 492.61,145.367 497.777,153.033 496,165.5C 491.499,177.008 482.999,181.675 470.5,179.5C 470.5,167.167 470.5,154.833 470.5,142.5 Z" />
    </g>
    <g>
        <path style="opacity:1" fill="#050708"
            d="M 184.5,242.5 C 180.758,244.018 177.425,243.352 174.5,240.5C 173.411,233.883 173.244,227.217 174,220.5C 179.081,215.014 183.748,215.347 188,221.5C 188.667,226.833 188.667,232.167 188,237.5C 187.303,239.584 186.136,241.251 184.5,242.5 Z" />
    </g>
    <g>
        <path style="opacity:1" fill="#060808"
            d="M 336.5,240.5 C 333.575,243.352 330.242,244.018 326.5,242.5C 323.061,238.962 321.728,234.629 322.5,229.5C 320.84,220.337 324.506,216.17 333.5,217C 334.667,218.167 335.833,219.333 337,220.5C 337.756,227.217 337.589,233.883 336.5,240.5 Z" />
    </g>
    <g>
        <path style="opacity:1" fill="#030304"
            d="M 242.5,222.5 C 251.884,222.184 261.218,222.684 270.5,224C 281.297,227.091 286.63,234.258 286.5,245.5C 284.382,271.133 270.716,281.966 245.5,278C 228.072,268.971 221.572,254.804 226,235.5C 229.76,228.88 235.26,224.547 242.5,222.5 Z" />
    </g>
    <g>
        <path style="opacity:1" fill="#6d7ba6"
            d="M 28.5,237.5 C 32.5,237.5 36.5,237.5 40.5,237.5C 40.5,249.5 40.5,261.5 40.5,273.5C 36.5,273.5 32.5,273.5 28.5,273.5C 17.8412,269.523 13.3412,261.856 15,250.5C 17.3851,243.948 21.8851,239.615 28.5,237.5 Z" />
    </g>
    <g>
        <path style="opacity:1" fill="#53659c"
            d="M 28.5,237.5 C 39.988,236.505 51.6547,236.172 63.5,236.5C 63.5,249.167 63.5,261.833 63.5,274.5C 51.6547,274.828 39.988,274.495 28.5,273.5C 32.5,273.5 36.5,273.5 40.5,273.5C 40.5,261.5 40.5,249.5 40.5,237.5C 36.5,237.5 32.5,237.5 28.5,237.5 Z" />
    </g>
    <g>
        <path style="opacity:1" fill="#4a4f63"
            d="M 244.5,237.5 C 251.508,237.334 258.508,237.5 265.5,238C 267.421,238.36 269.088,239.194 270.5,240.5C 272.836,248.323 271.169,255.157 265.5,261C 255.015,267.323 246.848,265.156 241,254.5C 239.389,249.854 239.222,245.187 240.5,240.5C 241.901,239.479 243.235,238.479 244.5,237.5 Z" />
    </g>
    <g>
        <path style="opacity:1" fill="#53659c"
            d="M 482.5,237.5 C 478.5,237.5 474.5,237.5 470.5,237.5C 470.5,249.5 470.5,261.5 470.5,273.5C 474.167,273.5 477.833,273.5 481.5,273.5C 470.346,274.495 459.012,274.828 447.5,274.5C 447.5,261.833 447.5,249.167 447.5,236.5C 459.345,236.172 471.012,236.505 482.5,237.5 Z" />
    </g>
    <g>
        <path style="opacity:1" fill="#6d7ba6"
            d="M 482.5,237.5 C 496.384,243.315 499.884,252.982 493,266.5C 490.149,270.506 486.315,272.84 481.5,273.5C 477.833,273.5 474.167,273.5 470.5,273.5C 470.5,261.5 470.5,249.5 470.5,237.5C 474.5,237.5 478.5,237.5 482.5,237.5 Z" />
    </g>
    <g>
        <path style="opacity:1" fill="#fdfefe"
            d="M 174.5,240.5 C 177.425,243.352 180.758,244.018 184.5,242.5C 196.246,244.413 203.246,251.246 205.5,263C 204.202,275.3 197.535,282.967 185.5,286C 172.129,289.212 160.629,286.045 151,276.5C 143.63,264.741 145.463,254.575 156.5,246C 161.937,242.242 167.937,240.409 174.5,240.5 Z" />
    </g>
    <g>
        <path style="opacity:1" fill="#fefefe"
            d="M 336.5,240.5 C 349.42,240.87 358.586,246.87 364,258.5C 365.798,268.736 362.298,276.569 353.5,282C 339.181,290.001 325.515,289.001 312.5,279C 301.945,265.889 303.611,254.555 317.5,245C 320.206,243.092 323.206,242.259 326.5,242.5C 330.242,244.018 333.575,243.352 336.5,240.5 Z" />
    </g>
    <g>
        <path style="opacity:1" fill="#6c7aa6"
            d="M 40.5,331.5 C 40.5,343.833 40.5,356.167 40.5,368.5C 36.8333,368.5 33.1667,368.5 29.5,368.5C 18.1251,365.104 13.2917,357.437 15,345.5C 19.5387,333.975 28.0387,329.308 40.5,331.5 Z" />
    </g>
    <g>
        <path style="opacity:1" fill="#52649a"
            d="M 40.5,331.5 C 48.1667,331.5 55.8333,331.5 63.5,331.5C 63.2249,344.204 63.5582,356.87 64.5,369.5C 52.6547,369.828 40.988,369.495 29.5,368.5C 33.1667,368.5 36.8333,368.5 40.5,368.5C 40.5,356.167 40.5,343.833 40.5,331.5 Z" />
    </g>
    <g>
        <path style="opacity:1" fill="#54669e"
            d="M 470.5,331.5 C 470.5,343.833 470.5,356.167 470.5,368.5C 462.833,368.5 455.167,368.5 447.5,368.5C 447.5,367.167 447.5,365.833 447.5,364.5C 447.5,353.5 447.5,342.5 447.5,331.5C 455.167,331.5 462.833,331.5 470.5,331.5 Z" />
    </g>
    <g>
        <path style="opacity:1" fill="#6c7aa6"
            d="M 470.5,331.5 C 488.072,329.49 496.572,337.157 496,354.5C 493.675,362.997 488.175,367.664 479.5,368.5C 476.5,368.5 473.5,368.5 470.5,368.5C 470.5,356.167 470.5,343.833 470.5,331.5 Z" />
    </g>
    <g>
        <path style="opacity:1" fill="#303957"
            d="M 447.5,364.5 C 447.5,365.833 447.5,367.167 447.5,368.5C 455.167,368.5 462.833,368.5 470.5,368.5C 473.5,368.5 476.5,368.5 479.5,368.5C 468.679,369.495 457.679,369.828 446.5,369.5C 446.216,367.585 446.549,365.919 447.5,364.5 Z" />
    </g>
    <g>
        <path style="opacity:1" fill="#2f3855"
            d="M 146.5,447.5 C 145.167,447.5 143.833,447.5 142.5,447.5C 142.5,455.167 142.5,462.833 142.5,470.5C 142.5,473.833 142.5,477.167 142.5,480.5C 141.505,469.346 141.172,458.012 141.5,446.5C 143.415,446.216 145.081,446.549 146.5,447.5 Z" />
    </g>
    <g>
        <path style="opacity:1" fill="#54669e"
            d="M 146.5,447.5 C 157.5,447.5 168.5,447.5 179.5,447.5C 179.5,455.167 179.5,462.833 179.5,470.5C 167.167,470.5 154.833,470.5 142.5,470.5C 142.5,462.833 142.5,455.167 142.5,447.5C 143.833,447.5 145.167,447.5 146.5,447.5 Z" />
    </g>
    <g>
        <path style="opacity:1" fill="#53659c"
            d="M 274.5,470.5 C 261.833,470.5 249.167,470.5 236.5,470.5C 236.5,462.833 236.5,455.167 236.5,447.5C 249.167,447.5 261.833,447.5 274.5,447.5C 274.5,455.167 274.5,462.833 274.5,470.5 Z" />
    </g>
    <g>
        <path style="opacity:1" fill="#54669e"
            d="M 364.5,447.5 C 365.833,447.5 367.167,447.5 368.5,447.5C 368.5,455.167 368.5,462.833 368.5,470.5C 356.167,470.5 343.833,470.5 331.5,470.5C 331.5,462.833 331.5,455.167 331.5,447.5C 342.5,447.5 353.5,447.5 364.5,447.5 Z" />
    </g>
    <g>
        <path style="opacity:1" fill="#2f3956"
            d="M 364.5,447.5 C 365.919,446.549 367.585,446.216 369.5,446.5C 369.828,458.012 369.495,469.346 368.5,480.5C 368.5,477.167 368.5,473.833 368.5,470.5C 368.5,462.833 368.5,455.167 368.5,447.5C 367.167,447.5 365.833,447.5 364.5,447.5 Z" />
    </g>
    <g>
        <path style="opacity:1" fill="#6c7aa6"
            d="M 142.5,470.5 C 154.833,470.5 167.167,470.5 179.5,470.5C 181.49,488.672 173.49,497.172 155.5,496C 148.034,493.375 143.701,488.208 142.5,480.5C 142.5,477.167 142.5,473.833 142.5,470.5 Z" />
    </g>
    <g>
        <path style="opacity:1" fill="#6c7aa6"
            d="M 236.5,470.5 C 249.167,470.5 261.833,470.5 274.5,470.5C 275.323,489.853 266.323,498.02 247.5,495C 238.569,489.299 234.903,481.132 236.5,470.5 Z" />
    </g>
    <g>
        <path style="opacity:1" fill="#6c7aa6"
            d="M 331.5,470.5 C 343.833,470.5 356.167,470.5 368.5,470.5C 368.5,473.833 368.5,477.167 368.5,480.5C 365.659,492.6 357.992,497.767 345.5,496C 333.992,491.499 329.325,482.999 331.5,470.5 Z" />
    </g>
</svg>